<?xml version="1.0" encoding="UTF-8"?>
<svg width="119px" height="122px" viewBox="0 0 119 122" version="1.1" xmlns="http://www.w3.org/2000/svg" xmlns:xlink="http://www.w3.org/1999/xlink">
    <!-- Generator: Sketch 57.1 (83088) - https://sketch.com -->
    <title>Group 8</title>
    <desc>Created with Sketch.</desc>
    <defs>
        <circle id="path-1" cx="54.5" cy="54.5" r="54.5"></circle>
        <filter x="-10.6%" y="-6.0%" width="121.1%" height="123.9%" filterUnits="objectBoundingBox" id="filter-2">
            <feMorphology radius="1.5" operator="erode" in="SourceAlpha" result="shadowSpreadOuter1"></feMorphology>
            <feOffset dx="0" dy="8" in="shadowSpreadOuter1" result="shadowOffsetOuter1"></feOffset>
            <feGaussianBlur stdDeviation="4" in="shadowOffsetOuter1" result="shadowBlurOuter1"></feGaussianBlur>
            <feColorMatrix values="0 0 0 0 0.668845663   0 0 0 0 0.668845663   0 0 0 0 0.668845663  0 0 0 0.5 0" type="matrix" in="shadowBlurOuter1"></feColorMatrix>
        </filter>
    </defs>
    <g id="work" stroke="none" stroke-width="1" fill="none" fill-rule="evenodd">
        <g id="contact-us-copy-3" transform="translate(-305.000000, -350.000000)">
            <g id="Group-8" transform="translate(310.000000, 350.000000)">
                <g id="Oval-2">
                    <use fill="black" fill-opacity="1" filter="url(#filter-2)" xlink:href="#path-1"></use>
                    <use fill="#FFFFFF" fill-rule="evenodd" xlink:href="#path-1"></use>
                </g>
                <g id="Group" transform="translate(34.000000, 26.000000)" fill="#27618D">
                    <path d="M28.6942344,46.6455939 L28.6942344,52.0095785 L26.3350031,52.0095785 L26.3350031,53.6187739 L25.8041761,53.6187739 L24.2706758,53.6187739 L23.6218872,54.8524904 C23.2090217,55.710728 22.2653292,56.2471264 21.2036752,56.2471264 C20.1420211,56.2471264 19.1983286,55.710728 18.7854631,54.8524904 L18.1366745,53.6187739 L16.6031742,53.6187739 L15.7184625,53.6187739 L15.7184625,52.0095785 L13.5361736,52.0095785 L13.3592313,52.0095785 L13.3592313,46.6455939 L28.6942344,46.6455939 L28.6942344,46.6455939 Z M29.6969077,44.5 L12.7104427,44.5 C11.7077694,45.0363985 11,45.4118774 11,46.3773946 L11,52.1704981 C11,53.1896552 11.7667502,54.1551724 12.8284042,54.1551724 L13.4771928,54.1551724 C13.4771928,55.2279693 14.1259814,55.7643678 14.9517123,55.7643678 L16.5441934,55.7643678 C17.3109436,57.3735632 19.080367,58.5 21.1446944,58.5 C23.2090217,58.5 24.9194644,57.3735632 25.7451953,55.7643678 L27.3966572,55.7643678 C28.2223881,55.7643678 28.8711767,55.2279693 28.8711767,54.1551724 L29.5199653,54.1551724 C30.6406002,54.1551724 30.9944849,53.1896552 30.9944849,52.1704981 L30.9944849,46.3773946 C31.0534656,45.4118774 30.6406002,44.5 29.6969077,44.5 L29.6969077,44.5 Z" id="Shape" fill-rule="nonzero"></path>
                    <path d="M21.5187738,2.67171717 C26.51299,2.67171717 31.3868636,4.62626263 34.8767978,7.93813131 C42.458379,15.104798 42.458379,25.1489899 34.8767978,31.989899 C31.266521,35.2474747 29.3410401,38.5050505 28.3782996,41.219697 L14.6592479,41.219697 C13.6965074,39.0479798 11.8311978,35.4103535 8.10057844,31.989899 C0.518997219,25.2032828 0.518997219,15.104798 8.10057844,7.93813131 C11.7108552,4.51767677 16.4643863,2.67171717 21.5187738,2.67171717 L21.5187738,2.67171717 Z M21.5187738,0.5 C15.8025022,0.5 10.3870871,2.61742424 6.35561133,6.47222222 C-2.12853908,14.5075758 -2.12853908,25.854798 6.41578261,33.5643939 C10.2667445,37.0391414 12.1320542,40.6767677 12.8541095,43.3914141 L30.1232667,43.3914141 C30.1232667,43.3914141 30.1232667,43.5 30.1232667,43.5 C30.9054934,40.7853535 32.7106318,37.0934343 36.5615936,33.6186869 C45.1059153,25.9090909 45.1660866,14.5075758 36.6217649,6.47222222 C32.6504605,2.67171717 27.174874,0.5 21.5187738,0.5 L21.5187738,0.5 Z" id="Shape" fill-rule="nonzero"></path>
                    <path d="M28.8095636,24.7536232 C28.5104172,24.5507246 28.0616976,24.5507246 27.7625512,24.7536232 L20.0595317,29.9275362 L12.2817255,24.6521739 C11.9825791,24.4492754 11.5338595,24.4492754 11.2347132,24.6521739 C10.9355668,24.8550725 10.9355668,25.1594203 11.1599266,25.3623188 L19.2368791,30.8405797 L19.2368791,37.9927536 C19.2368791,38.2971014 19.5360255,38.5 19.9847451,38.5 C20.4334647,38.5 20.732611,38.2971014 20.732611,37.9927536 L20.732611,30.8405797 L28.734777,25.4130435 C29.0339234,25.2608696 29.10871,24.9057971 28.8095636,24.7536232 Z" id="Path"></path>
                </g>
            </g>
        </g>
    </g>
</svg>