<?xml version="1.0" encoding="UTF-8"?>
<svg width="119px" height="122px" viewBox="0 0 119 122" version="1.1" xmlns="http://www.w3.org/2000/svg" xmlns:xlink="http://www.w3.org/1999/xlink">
    <!-- Generator: Sketch 57.1 (83088) - https://sketch.com -->
    <title>Group 9</title>
    <desc>Created with Sketch.</desc>
    <defs>
        <circle id="path-1" cx="54.5" cy="54.5" r="54.5"></circle>
        <filter x="-10.6%" y="-6.0%" width="121.1%" height="123.9%" filterUnits="objectBoundingBox" id="filter-2">
            <feMorphology radius="1.5" operator="erode" in="SourceAlpha" result="shadowSpreadOuter1"></feMorphology>
            <feOffset dx="0" dy="8" in="shadowSpreadOuter1" result="shadowOffsetOuter1"></feOffset>
            <feGaussianBlur stdDeviation="4" in="shadowOffsetOuter1" result="shadowBlurOuter1"></feGaussianBlur>
            <feColorMatrix values="0 0 0 0 0.668845663   0 0 0 0 0.668845663   0 0 0 0 0.668845663  0 0 0 0.5 0" type="matrix" in="shadowBlurOuter1"></feColorMatrix>
        </filter>
    </defs>
    <g id="work" stroke="none" stroke-width="1" fill="none" fill-rule="evenodd">
        <g id="contact-us-copy-3" transform="translate(-689.000000, -350.000000)">
            <g id="Group-9" transform="translate(694.000000, 350.000000)">
                <g id="Oval-2">
                    <use fill="black" fill-opacity="1" filter="url(#filter-2)" xlink:href="#path-1"></use>
                    <use fill="#FFFFFF" fill-rule="evenodd" xlink:href="#path-1"></use>
                </g>
                <g id="Group-2" transform="translate(28.000000, 23.000000)" fill="#27618D">
                    <path d="M32.1634705,2.70022883 C32.7352655,2.76773455 32.9496887,2.97025172 33.0926374,3.17276888 C33.4500093,3.64530892 34.0932787,4.92791762 34.1647531,8.23569794 C34.1647531,14.4462243 30.6625085,20.9267735 30.5910342,20.9942792 L28.0179565,25.6521739 L33.5214837,24.909611 C33.5929581,24.909611 37.8099464,24.3695652 42.5987298,24.3695652 C45.1003331,24.3695652 47.2445644,24.5045767 49.0314239,24.8421053 C51.8189247,25.3146453 52.7480916,28.8924485 51.8189247,35.8455378 C51.8189247,36.1155606 51.7474503,36.3180778 51.7474503,36.4530892 C51.318604,39.6933638 51.1041809,41.7185355 50.9612321,42.5286041 C50.8897578,42.7311213 50.8897578,42.8661327 50.8182834,43.1361556 C50.8182834,43.3386728 50.746809,43.6086957 50.6753346,44.0812357 C50.5323859,45.0263158 50.3179627,46.7139588 49.9605908,49.6167048 C49.3173214,54.9496568 47.530462,55.8947368 37.0237283,56.1647597 C35.4512919,56.2322654 33.8788556,56.2322654 32.449368,56.2322654 C27.8035334,56.2322654 23.586545,56.0297483 20.2272492,55.624714 C19.0121848,55.4897025 15.4384658,54.1395881 12.8653882,52.7894737 L12.2935932,52.6544622 L11.5788494,52.6544622 L2.85897516,52.6544622 L2.85897516,33.0778032 L11.5788494,33.0778032 L12.9368626,33.0778032 L13.7945551,31.9302059 L22.0141087,21.9393593 C22.7288525,21.1967963 27.4461615,16.2688787 29.6618672,12.0160183 C30.5195598,10.395881 30.8769317,8.37070938 31.2343036,6.4805492 C31.4487267,5.33295195 31.8060986,3.51029748 32.1634705,2.70022883 L32.1634705,2.70022883 Z M31.7346242,0 C28.2323797,0 28.8756491,7.22311213 27.0887896,10.8009153 C25.0160326,15.0537757 19.9413517,20.2517162 19.9413517,20.2517162 L11.5788494,30.3775744 L0,30.3775744 L0,55.3546911 L11.5788494,55.3546911 C11.5788494,55.3546911 17.3682741,58.1899314 19.9413517,58.4599542 C22.8718012,58.7974828 27.0173152,59 32.5208424,59 C33.95033,59 35.5227663,58.9324943 37.166677,58.9324943 C47.4589876,58.6624714 51.8903991,57.7173913 52.819566,49.9542334 C53.5343098,44.1487414 53.6772585,43.271167 53.6772585,43.271167 C53.6772585,43.271167 53.6772585,43.4061785 53.6772585,43.4061785 C53.6772585,43.4061785 53.8202073,42.5961098 54.5349511,36.7231121 C54.8208486,34.2929062 56.8221312,23.3569794 49.5317446,22.1418764 C47.3875132,21.8043478 44.8859099,21.6693364 42.5987298,21.6693364 C37.5955233,21.6693364 33.1641118,22.2768879 33.1641118,22.2768879 C33.1641118,22.2768879 37.0952026,15.2562929 37.0237283,8.30320366 C37.0237283,1.21510297 34.3791762,0 31.7346242,0 C31.7346242,0 31.7346242,0 31.7346242,0 L31.7346242,0 Z" id="Shape" fill-rule="nonzero"></path>
                    <path d="M12.7314815,49.8448276 C12.4259259,49.8448276 12.2222222,49.5735632 12.2222222,49.1666667 L12.2222222,36.2816092 C12.2222222,35.8747126 12.4259259,35.6034483 12.7314815,35.6034483 C13.037037,35.6034483 13.2407407,35.8747126 13.2407407,36.2816092 L13.2407407,49.1666667 C13.2407407,49.5057471 13.037037,49.8448276 12.7314815,49.8448276 Z" id="Path"></path>
                </g>
            </g>
        </g>
    </g>
</svg>