<?xml version="1.0" encoding="UTF-8"?>
<svg width="119px" height="122px" viewBox="0 0 119 122" version="1.1" xmlns="http://www.w3.org/2000/svg" xmlns:xlink="http://www.w3.org/1999/xlink">
    <!-- Generator: Sketch 57.1 (83088) - https://sketch.com -->
    <title>Group 10</title>
    <desc>Created with Sketch.</desc>
    <defs>
        <circle id="path-1" cx="54.5" cy="54.5" r="54.5"></circle>
        <filter x="-10.6%" y="-6.0%" width="121.1%" height="123.9%" filterUnits="objectBoundingBox" id="filter-2">
            <feMorphology radius="1.5" operator="erode" in="SourceAlpha" result="shadowSpreadOuter1"></feMorphology>
            <feOffset dx="0" dy="8" in="shadowSpreadOuter1" result="shadowOffsetOuter1"></feOffset>
            <feGaussianBlur stdDeviation="4" in="shadowOffsetOuter1" result="shadowBlurOuter1"></feGaussianBlur>
            <feColorMatrix values="0 0 0 0 0.668845663   0 0 0 0 0.668845663   0 0 0 0 0.668845663  0 0 0 0.5 0" type="matrix" in="shadowBlurOuter1"></feColorMatrix>
        </filter>
    </defs>
    <g id="work" stroke="none" stroke-width="1" fill="none" fill-rule="evenodd">
        <g id="contact-us-copy-3" transform="translate(-1073.000000, -350.000000)">
            <g id="Group-10" transform="translate(1078.000000, 350.000000)">
                <g id="Oval-2">
                    <use fill="black" fill-opacity="1" filter="url(#filter-2)" xlink:href="#path-1"></use>
                    <use fill="#FFFFFF" fill-rule="evenodd" xlink:href="#path-1"></use>
                </g>
                <g id="Group-4" transform="translate(23.000000, 26.000000)">
                    <path d="M19.6371951,13.3864307 L19.4268293,13.9705015 L19.1463415,13.9705015 L18.7957317,13.9705015 L18.445122,14.1651917 L16.6219512,15.2035398 L16.5518293,15.2035398 L16.972561,14.4247788 L17.6737805,14.1651917 L18.6554878,13.7758112 L18.6554878,13.7109145 L19.6371951,13.3864307 L19.6371951,13.3864307 Z M11.6432927,13.6460177 L11.6432927,13.6460177 L12.2743902,13.9056047 L13.6768293,14.4247788 L13.8170732,15.1386431 L14.1676829,16.5014749 L12.3445122,17.539823 L14.3780488,17.539823 L14.5182927,18.2536873 L14.3780488,18.3185841 L13.8871951,18.5132743 L13.6768293,19.0324484 L13.0457317,20.460177 L11.222561,21.8230088 L10.8018293,22.1474926 L10.8018293,22.4070796 L9.4695122,22.0825959 L8.13719512,21.8230088 L7.85670732,22.7315634 L7.57621951,22.7315634 L7.08536585,22.7315634 L6.7347561,22.9911504 L6.17378049,23.380531 C7.1554878,19.8112094 9.04878049,16.4365782 11.6432927,13.6460177 L11.6432927,13.6460177 Z M15.8506098,17.539823 L15.570122,17.9292035 L15.0792683,18.1238938 L15.3597561,17.6047198 L15.8506098,17.6047198 L15.8506098,17.539823 Z M14.5182927,32.0766962 L15.429878,32.7256637 L15.8506098,33.0501475 L16.4115854,32.9852507 L17.4634146,32.8554572 L17.9542683,34.0884956 L18.2347561,34.7374631 L19.0060976,34.8672566 L19.9878049,35.0619469 L20.5487805,36.100295 L20.7591463,36.4896755 L21.179878,36.6843658 L21.320122,36.7492625 C22.722561,37.3982301 24.195122,38.1120944 25.597561,38.7610619 L25.527439,39.2153392 L24.4054878,40.7079646 L24.125,41.0973451 L24.195122,41.5516224 L24.4054878,43.4985251 L23.9847561,44.4070796 L23.0030488,44.6017699 L22.4420732,44.7315634 L22.1615854,45.120944 L21.3902439,46.159292 L20.8993902,46.7433628 L21.25,47.3923304 L21.320122,47.5870206 L20.6890244,49.0147493 L19.847561,49.2743363 L19.2164634,49.4690265 L19.0060976,50.0530973 L18.9359756,50.3126844 C18.304878,49.9882006 17.6737805,49.6637168 17.1128049,49.2743363 L17.3231707,48.560472 L17.3932927,48.1710914 L17.1829268,47.7817109 L16.6920732,46.6784661 L16.7621951,44.6017699 L16.7621951,44.1474926 L16.4817073,43.7581121 L15.6402439,42.6548673 L15.570122,42.5250737 L15.429878,42.3952802 L13.6768293,40.9675516 L12.1341463,38.3716814 L12.4847561,37.2035398 L12.625,36.7492625 L12.4847561,36.4896755 L12.695122,36.1651917 L12.7652439,36.0353982 L12.8353659,35.9056047 L13.6067073,33.9587021 L13.8170732,34.0235988 L13.8170732,32.5958702 L14.5182927,32.0766962 L14.5182927,32.0766962 Z M16.4817073,8 C9.04878049,12.4778761 4.07012195,20.20059 4,29.0265487 L6.17378049,30.1946903 L8.41768293,30.7787611 L9.39939024,31.9469027 L10.9420732,32.9852507 L11.8536585,32.8554572 L12.4847561,33.1150442 L12.4847561,33.3097345 L11.5731707,35.4513274 L10.9420732,36.359882 L11.152439,36.8141593 L10.5914634,38.5014749 L12.554878,41.8112094 L14.5182927,43.4336283 L15.3597561,44.5368732 L15.2896341,46.8731563 L15.9207317,48.2359882 L15.5,49.8584071 C16.6920732,50.6371681 17.9542683,51.3510324 19.2865854,52 L19.9878049,51.3510324 L20.3384146,50.5722714 L21.7408537,50.1179941 L22.7926829,47.5870206 L22.4420732,46.9380531 L23.2134146,45.899705 L24.8262195,45.5752212 L25.6676829,43.7581121 L25.4573171,41.4867257 L26.7896341,39.79941 L27,38.1120944 C25.2469512,37.2684366 23.4237805,36.4247788 21.6707317,35.5811209 L20.8993902,33.9587021 L19.2865854,33.6342183 L18.445122,31.4926254 L16.2713415,31.6873156 L14.4481707,30.4542773 L12.4847561,32.0117994 L12.4847561,32.2713864 C11.9237805,32.1415929 10.9420732,32.0766962 10.3810976,31.8171091 L9.67987805,30.7138643 L9.67987805,29.480826 L8.62804878,29.6106195 C8.76829268,28.8318584 9.11890244,27.7286136 9.18902439,27.2094395 L8.41768293,27.2094395 L7.64634146,28.1179941 L6.875,28.4424779 L5.82317073,27.8584071 L5.68292683,26.6253687 L5.89329268,25.2625369 L7.50609756,24.0943953 L8.83841463,24.0943953 L9.04878049,23.4454277 L10.6615854,23.8348083 L11.8536585,25.1976401 L12.0640244,22.9262537 L14.097561,21.3687316 L14.8689024,19.6814159 L16.4115854,19.0973451 L17.2530488,17.9941003 L19.2164634,17.6696165 L20.1981707,16.3716814 C19.2164634,16.3716814 18.2347561,16.3716814 17.2530488,16.3716814 L19.0762195,15.3333333 L20.4085366,15.3333333 L22.3018293,14.6843658 L22.5121951,14.0353982 L21.8810976,13.4513274 L21.1097561,13.2566372 L21.320122,12.6076696 L20.7591463,11.5693215 L19.4969512,12.0235988 L19.7073171,11.1150442 L18.1646341,10.3362832 L16.972561,12.2831858 L17.1128049,12.9970501 L15.9207317,13.3864307 L15.1493902,14.879056 L14.7987805,13.5162242 L12.7652439,12.7374631 L12.4146341,11.699115 L15.1493902,10.2064897 L16.3414634,9.16814159 L16.4817073,8 L16.4817073,8 Z" id="Shape" fill="#27618D" fill-rule="nonzero"></path>
                    <path d="M16,11 L17.0096154,11 L17.5480769,9.74074074 C18.0192308,9.37037037 18.4230769,9.07407407 18.8942308,8.7037037 L19.9038462,9.07407407 C20.5769231,9.59259259 21.3173077,10.1111111 21.9903846,10.6296296 L23,9.59259259 L21.8557692,9.07407407 L21.3173077,7.88888889 L19.3653846,7.66666667 L19.3653846,7 L18.6923077,7.22222222 C18.5576923,7.2962963 18.4903846,7.37037037 18.3557692,7.37037037 L18.0192308,8.18518519 L17.8173077,7.74074074 C17.6826923,7.81481481 17.4807692,7.96296296 17.3461538,8.03703704 L17.4134615,8.85185185 L16.6057692,9.59259259 L16,11 Z" id="Path" fill="#27618D"></path>
                    <polygon id="Path" fill="#27618D" points="22.3571429 17 23 15.88 22 15"></polygon>
                    <path d="M31.8269231,5.36752137 C32.1089744,5.36752137 32.3910256,5.36752137 32.6025641,5.36752137 L33.0961538,5.57264957 L32.5320513,7.00854701 C31.1217949,7.62393162 29.7820513,8.1025641 28.4423077,8.51282051 L27.9487179,8.64957265 L27.8076923,8.92307692 L27.8076923,8.51282051 L27.8076923,7.55555556 L27.8076923,6.87179487 L27.2435897,6.46153846 L26.75,6.11965812 L28.5833333,5.64102564 C29.6410256,5.43589744 30.7692308,5.36752137 31.8269231,5.36752137 L31.8269231,5.36752137 Z M31.8269231,4 C30.6282051,4 29.3589744,4.06837607 28.2307692,4.20512821 L24.775641,5.09401709 L24,5.84615385 L26.3974359,7.48717949 L26.3974359,8.51282051 L25.5512821,9.47008547 L26.9615385,12 L27.8076923,11.5213675 L28.8653846,9.88034188 C30.5576923,9.4017094 32.0384615,8.78632479 33.6602564,8.1025641 L35,4.88888889 L33.025641,4.13675214 C32.6025641,4 32.1794872,4 31.8269231,4 L31.8269231,4 Z" id="Shape" fill="#27618D" fill-rule="nonzero"></path>
                    <polygon id="Path" fill="#27618D" points="33.4827586 9.30434783 33.0689655 9.2173913 33.0689655 9.2173913 33 9.69565217 33.7586207 10 35 9.43478261 34.3793103 9"></polygon>
                    <polygon id="Path" fill="#27618D" points="19 9.46666667 20.4545455 10 21 10 21 9.53333333 19.8181818 9"></polygon>
                    <polygon id="Path" fill="#27618D" points="37.6470588 14 37 14.1363636 37.1764706 15 38 14.6818182"></polygon>
                    <path d="M34.8131868,56.2769231 C33.8989011,56.3417582 32.9142857,56.4065934 32,56.4065934 C15.8945055,56.4065934 2.81318681,44.3472527 2.81318681,29.5 C2.81318681,14.6527473 15.8945055,2.59340659 32,2.59340659 C48.1054945,2.59340659 61.1868132,14.6527473 61.1868132,29.5 C61.1868132,34.8164835 59.4989011,39.743956 56.6153846,43.9582418 C58.0923077,43.2450549 59.7098901,42.3373626 61.1868132,41.6241758 C63.0153846,37.9285714 64,33.843956 64,29.5 C64,13.2263736 49.6527473,0 32,0 C14.3472527,0 0,13.2263736 0,29.5 C0,45.7736264 14.3472527,59 32,59 C34.1098901,59 36.1494505,58.8054945 38.1186813,58.4813187 C37.2043956,57.832967 36.0087912,57.0549451 34.8131868,56.2769231 Z" id="Path" fill="#27618D"></path>
                    <path d="M33.008,32.2994746 C33.944,33.2714536 34.88,34.2434326 35.816,35.2154116 L37.184,34.1138354 L37.76,34.7618214 L39.272,33.9194396 L39.776,34.502627 L41.288,34.502627 L42.152,35.3450088 L41.648,36.8353765 L42.728,37.9369527 L42.656,39.8161121 L43.448,41.1768827 L42.872,42.2784588 C42.8,43.1208406 42.728,43.9632224 42.728,44.8056042 C42.728,44.8704028 42.8,44.9352014 42.8,45 C43.16,44.8704028 43.664,44.7408056 44.24,44.7408056 C44.24,44.676007 44.24,44.676007 44.168,44.6112084 C44.168,44.0928196 44.24,43.5744308 44.24,42.9912434 C44.24,42.8616462 44.24,42.732049 44.24,42.6672504 L44.672,41.7600701 C44.888,41.3712785 44.816,40.9824869 44.672,40.6584939 L44.096,39.6217163 L44.168,38.0665499 C44.168,37.7425569 44.024,37.4185639 43.808,37.1593695 L43.304,36.6409807 L43.592,35.8633975 C43.736,35.4098074 43.592,34.9562172 43.304,34.5674256 L42.44,33.7250438 C42.152,33.4658494 41.792,33.3362522 41.36,33.3362522 L40.568,33.3362522 L40.496,33.2714536 C40.208,32.9474606 39.776,32.8178634 39.344,32.8178634 C39.056,32.8178634 38.84,32.882662 38.624,33.0122592 L38.12,33.2714536 C37.832,33.0770578 37.544,33.0122592 37.256,33.0122592 C36.896,33.0122592 36.608,33.1418564 36.32,33.3362522 L36.032,33.5954466 C35.456,33.0122592 34.88,32.4290718 34.304,31.8458844 L33.584,30.290718 L34.16,29.5131349 C34.52,29.0595447 34.448,28.4115587 34.088,27.9579685 L34.88,26.2732049 C35.744,25.3012259 36.608,24.3940455 37.544,23.4868651 L38.912,23.1628722 L40.64,22.9684764 L41.432,23.1628722 L43.232,24.7828371 C43.52,25.0420315 43.88,25.1716287 44.24,25.1716287 C44.24,25.1716287 44.24,25.1716287 44.312,25.1716287 C44.744,25.1716287 45.104,24.9772329 45.32,24.7180385 L45.752,24.2644483 L45.968,24.1996497 L47.48,24.5884413 C47.624,24.5884413 47.696,24.6532399 47.84,24.6532399 L49.28,24.6532399 C49.568,24.6532399 49.928,24.5884413 50.144,24.3940455 L51.152,23.7460595 C51.224,23.6812609 51.368,23.6164623 51.44,23.5516637 L51.872,23.033275 C52.16,22.709282 52.232,22.385289 52.16,21.9964974 C52.088,21.6077058 51.872,21.2837128 51.512,21.089317 L50.432,20.2469352 C50.216,20.117338 50,20.0525394 49.784,20.0525394 L48.776,19.9877408 C48.416,19.5341506 48.056,19.0805604 47.624,18.6269702 C47.336,18.3677758 46.976,18.2381786 46.616,18.2381786 C46.4,18.2381786 46.184,18.3029772 46.04,18.3677758 L45.968,18.3677758 C45.896,18.2381786 45.824,18.0437828 45.68,17.9141856 L44.6,16.9422067 C44.312,16.6830123 43.952,16.5534151 43.592,16.5534151 L43.16,16.5534151 C42.728,16.5534151 42.296,16.7478109 42.08,17.0070053 C41.936,16.9422067 41.792,16.9422067 41.648,16.9422067 C41.576,16.9422067 41.432,16.9422067 41.36,16.9422067 L39.704,17.2661996 C39.632,17.2661996 39.56,17.3309982 39.488,17.3309982 L39.416,17.2014011 L39.92,16.9422067 C40.424,16.6830123 40.712,16.1646235 40.64,15.6462347 C40.712,15.5814361 40.784,15.5166375 40.856,15.3870403 L41.216,15.3870403 C41.432,15.3870403 41.576,15.3222417 41.792,15.2574431 L43.016,15.5166375 C43.088,15.5166375 43.232,15.5166375 43.304,15.5166375 C43.664,15.5166375 43.952,15.3870403 44.24,15.1926445 L45.896,13.9614711 C46.184,13.7670753 46.328,13.5078809 46.4,13.1838879 L46.4,13.1190893 L47.408,12.5359019 C47.624,12.4063047 47.84,12.2119089 47.912,11.9527145 L47.912,11.9527145 C48.2,12.1471103 48.488,12.2767075 48.848,12.2767075 C48.92,12.2767075 48.92,12.2767075 48.992,12.2767075 C49.136,12.2767075 49.28,12.2119089 49.424,12.2119089 C53.024,15.2574431 55.616,19.145359 56.84,23.357268 L56.408,22.9684764 C56.12,22.709282 55.76,22.5796848 55.4,22.5796848 C55.184,22.5796848 55.04,22.5796848 54.824,22.709282 C54.32,22.9036778 53.96,23.357268 53.96,23.8756567 L53.96,25.3660245 C53.96,25.8196147 54.176,26.2084063 54.608,26.4676007 L55.616,27.0507881 L56.264,27.6339755 C56.48,27.8283713 56.768,27.9579685 57.056,28.0227671 L56.912,28.1523643 L55.256,29.1891419 C55.184,29.2539405 55.112,29.2539405 55.112,29.3187391 L53.672,30.5499124 C53.24,30.938704 53.096,31.5218914 53.312,32.0402802 C53.528,32.4938704 54.032,32.8178634 54.608,32.8178634 C54.608,32.8178634 54.68,32.8178634 54.68,32.8178634 L53.96,34.502627 L51.872,37.5481611 C51.728,37.7425569 51.656,38.0017513 51.656,38.2609457 L51.656,41.4360771 C51.656,41.5656743 51.656,41.6304729 51.728,41.7600701 L51.872,42.3432574 L50.936,42.8616462 C50.864,42.9264448 50.792,42.9264448 50.792,42.9912434 L49.496,43.9632224 C49.208,44.1576182 48.992,44.4816112 48.992,44.8704028 C48.992,44.8704028 48.992,44.8704028 48.992,44.8704028 C49.496,44.9352014 50,45 50.504,45 L50.432,44.9352014 L51.728,43.9632224 L52.952,43.2504378 L53.528,42.6672504 L53.168,41.4360771 C53.168,40.3992995 53.168,39.2977233 53.168,38.2609457 L55.328,35.0858144 L56.624,32.1698774 L56.624,31.5218914 C55.472,31.58669 55.4,31.6514886 54.752,31.7162872 L56.192,30.4851138 L57.992,29.3187391 L58.928,28.2819615 L58.928,27.9579685 C58.928,27.6339755 59,27.3747811 59,27.0507881 C58.568,26.6619965 58.64,26.3380035 58.424,25.9492119 L57.128,26.9859895 L56.408,26.3380035 L55.256,25.6252189 L55.256,24.1348511 L56.552,25.3012259 L57.992,25.1068301 C58.208,25.3012259 58.496,25.4956217 58.712,25.6900175 C57.632,19.6637478 54.176,14.4150613 49.208,10.6567426 L48.704,11.2399299 L47.264,10.0735552 L48.2,10.0735552 C47.336,9.55516637 46.4,8.77758319 45.536,8.2591944 L45.176,8 L42.944,8.45359019 L41.432,9.23117338 L41.432,9.94395797 L39.488,11.1751313 L40.136,12.9894921 L41.36,12.2119089 L42.152,12.9894921 L43.016,13.4430823 L43.592,12.0823117 L43.232,11.4991243 L43.592,11.0455342 L44.816,10.2031524 L45.392,10.2031524 L44.888,10.9807356 L44.888,12.0175131 C44.888,11.8879159 45.896,11.8231173 46.4,11.7583187 L44.96,12.6654991 L44.816,13.2486865 L43.16,14.4798599 L41.432,14.1558669 L41.432,13.2486865 L40.64,13.6374781 L41,14.3502627 L39.776,14.3502627 L39.416,14.9982487 L38.696,14.2206655 C38.408,13.5726795 38.12,12.7950963 37.832,12.2767075 L36.896,12.2767075 L36.896,13.1838879 L37.472,13.6374781 L37.472,14.6742557 L37.256,15.9702277 L38.552,15.7110333 L38.84,15.4518389 L38.984,16.0350263 L38.264,16.3590193 L36.752,16.6182137 L37.616,17.3309982 L37.832,17.9789842 L36.752,17.9789842 L34.448,18.9509632 L34.448,20.5061296 L36.032,20.5061296 L36.68,21.3485114 L38.048,20.9597198 L38.624,19.7285464 L39.632,19.145359 L39.848,18.6917688 L41.504,18.3677758 L42.368,19.2749562 L43.376,19.7285464 L42.8,20.7005254 L43.664,20.441331 L44.096,19.3397548 L43.016,17.9141856 L43.448,17.9141856 L44.528,18.8861646 L44.744,20.2469352 L45.752,21.2837128 L45.968,19.793345 L46.544,19.5341506 C47.12,20.0525394 47.552,20.6357268 47.984,21.2189142 L49.64,21.3485114 L50.648,21.8669002 L50.288,22.4500876 L49.28,23.0980736 L47.84,23.0980736 L45.968,22.6444834 L44.96,22.8388792 L44.24,23.5516637 L42.152,21.6725044 L40.712,21.3485114 L38.624,21.5429072 L36.752,21.9964974 C35.672,23.0980736 34.664,24.1348511 33.656,25.3012259 L32.432,27.8931699 L33.008,28.4763573 L32,29.8371278 L33.008,32.2994746 Z M37.04,19.5989492 C36.968,19.5341506 36.824,19.4045534 36.752,19.3397548 L37.112,19.145359 L37.256,19.145359 L37.04,19.5989492 Z" id="Shape" fill="#27618D" fill-rule="nonzero"></path>
                    <path d="M71.6398746,40.8670889 C70.4973994,39.4708886 66.9985689,39.9785978 65.5704748,40.8670889 C64.1423807,41.75558 54.9311739,46.2614991 54.9311739,46.2614991 C54.9311739,46.2614991 48.8617741,45.6268626 45.9341812,45.373008 C43.0065884,45.1191534 42.863779,46.8961356 44.3632777,47.3403812 C45.9341812,47.8480904 47.7192988,49.1173634 47.7192988,49.1173634 L41.0072567,52.4809368 C41.0072567,52.4809368 37.6512356,51.4655184 34.2952145,50.6404909 C30.9391934,49.8154635 30.2251464,51.4020547 31.7960499,52.4809368 C33.3669533,53.6232825 40.2218049,57.9388107 40.2218049,57.9388107 L50.2898682,54.3213826 C50.2898682,54.3213826 50.2898682,56.6695377 50.1470588,57.9388107 C50.0042493,59.2080836 51.289534,61.1754568 52.7890328,59.0811563 C54.3599363,56.9868559 57.7159574,51.2116638 57.7159574,51.2116638 C57.7159574,51.2116638 67.4269971,45.8172536 69.2121147,44.7383715 C70.9972323,43.6594895 72.7823499,42.1998255 71.6398746,40.8670889 Z M70.5688041,41.8190436 C70.4973994,42.0094346 70.2831853,42.5806074 68.426663,43.6594895 C66.6415454,44.7383715 57.073315,50.0693181 57.0019103,50.1327817 L56.6448868,50.3231727 L56.4306727,50.6404909 C56.4306727,50.7039546 53.0746516,56.3522194 51.5751528,58.3830562 C51.5751528,58.3830562 51.5751528,58.3830562 51.5751528,58.3830562 C51.5751528,58.2561289 51.5037481,58.1292016 51.5751528,58.065738 C51.7179622,56.796465 51.7179622,54.4483099 51.7179622,54.3213826 L51.7179622,52.4174731 L40.3646143,56.4791467 C38.7223061,55.4002647 34.3666192,52.6078641 32.8671204,51.5924457 C33.0813345,51.5924457 33.438358,51.6559093 33.8667863,51.7828366 C37.1514026,52.6078641 40.5074237,53.6232825 40.5788284,53.6232825 L41.1500661,53.8136734 L50.2898682,49.2442907 L48.5761553,48.101945 C48.5047506,48.0384813 47.3622753,47.2769175 46.0055859,46.642281 C49.0045835,46.8961356 54.5741504,47.4673085 54.6455551,47.4673085 L55.0739833,47.5307721 L55.5024115,47.3403812 C56.4306727,46.8961356 64.8564278,42.7709984 66.2845218,41.8825073 C66.7843548,41.565189 67.8554253,41.2478708 68.9979006,41.2478708 C69.7833523,41.2478708 70.2117805,41.4382617 70.35459,41.565189 C70.5688041,41.6921163 70.5688041,41.75558 70.5688041,41.8190436 Z" id="Shape" fill="#2C3E50" fill-rule="nonzero"></path>
                </g>
            </g>
        </g>
    </g>
</svg>